<?xml version="1.0" encoding="utf-8"?>
<!-- Generator: Adobe Illustrator 22.0.1, SVG Export Plug-In . SVG Version: 6.00 Build 0)  -->
<svg version="1.1" id="Layer_1" xmlns="http://www.w3.org/2000/svg" xmlns:xlink="http://www.w3.org/1999/xlink" x="0px" y="0px"
	 viewBox="0 0 441.2 589.4" style="enable-background:new 0 0 441.2 589.4;" xml:space="preserve">
<style type="text/css">
	.st0{clip-path:url(#SVGID_2_);}
	.st1{fill-rule:evenodd;clip-rule:evenodd;fill:#FFFFFF;}
	.st2{fill:#FFFFFF;}
</style>
<g>
	<defs>
		<rect id="SVGID_1_" width="441.2" height="589.4"/>
	</defs>
	<clipPath id="SVGID_2_">
		<use xlink:href="#SVGID_1_"  style="overflow:visible;"/>
	</clipPath>
	<g class="st0">
		<g id="Shape_3">
			<g>
				<path class="st1" d="M261.4,134.7c4.6,2.1,9.6,5.1,15.3,3c4-1.5,7.4-4.4,9.2-6.1c-2.9-1.4-7.1-3.4-11.8-5.8
					C264.1,127.5,257,132.7,261.4,134.7z M317.8,139.9c-1.8-3.2-5.7-5.8-14.3-5.5c-3.1,0.1-5.4,0.5-7.1,1c-9.2,5-15.9,14-20.2,21.4
					c0,0,0,0,0,0s-0.1,0.2-0.3,0.6c-0.2,0.4-0.4,0.7-0.6,1.1c-2,3.6-6.2,12.8-6,23.4c0.3,13.8,2.2,20,2.2,20s-4.4,4.6-5.9,7.5
					c-1.5,2.9-2.2,4.5-8.1,3.5c-5.9-1-26.3-1.6-39.8,8.1c-13.5,9.7-16.8,16.6-18.7,15.9s6.9-14.3,25.2-22.7
					c18.3-8.4,26.7-4.4,27.1-7c0.3-2.2-6.3-6.5-8.7-8c-2-0.5-4.5-0.7-6.9-0.1c-5.9,1.4-11.2,1.8-9.5-0.2c1.7-2,7.9-3.5,13.7-2.8
					c0.3,0,0.6,0.1,0.9,0.1c-3.1-7.4-12.4-29-16.4-35.4c-1.2,0.3-3.2,0.6-6,1c-5.7,0.8-12-0.8-13.7-2.8c-1.7-2,3.6-1.6,9.5-0.2
					c4,1,8.1-0.3,10.2-1.2c1-2.7,2.8-7.4,4-10c1.8-3.7,2.1-7.4,2.1-7.4s9.5,10.3,23.8,13.6c8.8,2,15.1,2.7,18.7,2.9
					c5.3-9,12.7-16.2,19-21.3c-0.4-0.7-1.2-1.4-2.4-2.1c-0.2-0.1-0.5-0.3-0.9-0.5c-0.8,1-2.3,2.6-5.1,4.3
					c-4.7,2.9-10.1,6.2-18.6,2.6c-8.5-3.6-11.5-5.1-6.9-10.2c3.2-3.6,9.5-5.1,12.9-5.7c-5.6-3.1-11.6-6.8-16.8-11
					c-13.3-10.7-14.8-13.9-29.5-12.9c-14.7,1-20,1.7-22.7,5.2c-2.6,3.5-5,7.5-9.5,17.4c-4.5,9.9-6.8,22.4-8.5,26.6
					c-1.8,4.2-5.8,6.4-4.1,0.6c1.8-5.8,2.5-6.9,1.8-12.3c-0.6-4.2-3-9.8-4-12c-1,0.3-3.6,1.2-8.7,2.4c-6.7,1.5-14.3,0.3-16.5-1.9
					c-2.2-2.2,4.1-2.3,11.3-1.2c6.4,1,12.3-2.6,13.5-3.4c0.2-7.3,0.6-25.1,0.6-31.8c0-5.8,0.1-12.3,0.2-15.8
					c-1.5,0.3-3.8,0.7-7.2,1.1c-6.7,0.9-14.3-0.5-16.4-2.4s4.2-1.7,11.3-0.4c5.3,0.9,10.4-0.7,12.7-1.6c1.9-3.7,10.8-21.7,13.5-34
					c3-13.7-4.1-28.8-13.5-28.8c-9.5,0-12.6,12.2-19.3,25.4c-6.7,13.1-15.9,28.5-17.2,34.9c-1.3,6.4-1.4,51.9-1.4,51.9
					s1.3,6.5,0.8,9.7c-0.5,3.1,5.7,14.4,7.9,25c2.3,10.6,0,15.8-1.6,8.8s-4.2-19.1-7.3-25.6c-0.6-1.3-1.1-2.9-1.4-4.5
					c-2.4-0.3-7.8-0.5-12.8,1.9c-6.5,3.1-12.5,5.1-11,2.7c1.5-2.4,8.4-5.7,15.1-6.7c4.2-0.6,6.8-0.9,8.1-1c-0.6-5.3-0.3-10.8-0.8-13
					c-0.7-3.3-6-24.8-7.3-29.7c0-0.2-0.1-0.3-0.1-0.6c-1.4,0.4-3.8,1.1-7.6,2c-6.7,1.5-14.3,0.3-16.5-1.9c-2.2-2.2,4.1-2.3,11.3-1.2
					c5.4,0.8,10.5-1.6,12.7-2.9c0.1-10.4,2.4-33.7,1-42.1c-1.7-10.2-13.4-19.8-18.9-21.1c-5.5-1.3-12.7-3.8-14.2,24.4
					c-1.5,28.1,0.6,57.8,1.4,68.1c0.8,10.3,5,36.5,6.1,40.5c1.1,4,1,9.7,9.1,19.5c8,9.8,8.4,13.2,3.5,9.7c0,0-10.1-14-13-18.4
					c-1,0.9-3,2.6-6.7,5.2c-5.6,4-13,5.8-15.9,4.6c-2.9-1.2,2.9-3.7,9.9-5.5c5.7-1.4,9.6-6.2,10.9-8c-2.6-5.9-6.7-17.6-9.6-24.1
					c-1.1-2.6-3-8.5-5.5-15.5c-1,0.8-2.4,1.8-4.2,3.1c-4.8,3.4-11.3,5-13.7,4c-2.5-1,2.5-3.2,8.6-4.8c3.8-1,6.6-3.6,8.3-5.5
					C81.8,102.7,74.3,84.9,65.7,81c-13.5-6.1-18.5,5.5-18.5,5.5s6.3,36.9,11.7,52.4c5.3,15.5,20,49.3,24,57.3
					c3.9,7.8,9.7,16.1,10,16.5c0.4-0.7,0.8-1.4,1.3-2.2c3-4.9,8.2-8.8,10.8-8.8c2.6,0-1,3.8-5.9,7.5c-3,2.2-4.5,5.6-5.3,7.9
					c1.5,6.5,4.3,19,6.5,26.7c3,10.8,20.9,61.3,34.9,83.5c14,22.2,21,26.3,32,27.8c10.9,1.5,23.9-2.7,25.6-0.4
					c1.8,2.3-10.6,4.2-21.5,4.2s-16.7-4.8-20.5-6c-3.8-1.3-1.5,12.4-0.9,21.2c0.6,8.8-2.7,17.7,14.5,24.3
					c17.2,6.6,45.5,10.1,68.6-1.9c23.2-12,24.4-12,24.4-18c0-6,1-46.9,1-46.9s-8.9,6.2-11.9,6.4c-3.1,0.3,8.2-7.7,15.9-14.3
					c7.7-6.6,28.1-34.1,32.6-46.2c4.6-12.1,12.8-46.5,16-55.7c1.4-4,2.5-6.9,3-10c-0.6,0.2-1.3,0.5-2,0.8
					c-5.6,2.1-12.2,1.9-14.3,0.3c-2.1-1.6,3.2-2.5,9.5-2.4c2.7,0,5.1-0.8,7.1-1.8c0-1.1-0.1-2.3-0.3-3.6c-0.9,0-1.7,0.1-2.6,0.3
					c-4.9,1.2-9.3,1.5-7.9-0.2c1.3-1.5,5.7-2.7,10.1-2.4c-0.5-2.1-1.2-4.4-2.2-7.2c-4.1-11.2-4.9-18-2.4-25.4
					c-0.2,0.2-0.5,0.4-0.8,0.6c-6,4.5-10.2,4.1-7.9-4.9c2.3-9.1,3.9-9.8,8.3-13.3c2.8-2.2,6.8-5.6,9.2-7.7
					C318.3,142.7,318.3,140.9,317.8,139.9z M129.5,177.3c0,0,3-6.6,16.7-6.7c8.7-0.1,15.6-6.9,25.5-10.7c10-3.8,19.4-3.9,20-2.2
					c0.5,1.7-7.9,1.7-13.2,2.5c-5.3,0.8-11.3,5.6-22.4,10.7c-11.2,5.1-16.3,1.9-19.5,4.6C133.3,178,125.9,187.1,129.5,177.3z
					 M209.6,310.6c0-4.8-2.5-15.9-18.6-31.1c-16.1-15.2-28.7-31.9-32-53.5c-3.3-21.6-20-31.5-20-31.5c-3.7-1.7-3-6.8,4.8-0.1
					c7.8,6.7,15.5,17.4,17.8,28.8c2.3,11.3,6.5,23.3,15.4,36.4c8.9,13.1,29.3,27,33.6,40.2C214.7,313,209.6,315.4,209.6,310.6z
					 M303.4,168.9c0.5,1.2,4.4-1.1,7.5-3.1c2.5-5.2,4.9-11.8,6.3-17.2c-2.8,2.4-6.9,6-9.5,8.6C303.4,161.4,302.6,166.9,303.4,168.9z
					"/>
			</g>
		</g>
		<g id="Rounded_Rectangle_3">
			<g>
				<path class="st1" d="M414.3,474.7c0-9.6-2.3-18.7-6.4-26.7l0.2-0.1c-9.7-19-29.5-32.1-52.4-32.1c-1.1,0-2.2,0-3.2,0.1
					c-31.1,1.6-55.8,27.3-55.8,58.7c0,32.5,26.3,58.8,58.8,58.8c0.7,0,1.5,0,2.2,0c0.5,0,1.1,0,1.6-0.1c0.1,0,0.1,0,0.2,0
					c21.2-1.4,39.3-13.9,48.5-31.8l-27.3-10c-1.2,1.7-2.5,3.3-3.9,4.7l-0.2-0.1c-5.1,5-11.9,8.2-19.5,8.6c-0.2,0-0.3,0-0.5,0
					c-0.3,0-0.7,0-1,0c-0.2,0-0.5,0-0.7,0c-0.3,0-0.6,0-0.9,0c-9.5-0.5-17.7-5.4-22.9-12.7c-0.5,0-0.8,0-0.8,0l-2.4-5.7h85.2
					C413.9,482.6,414.3,478.7,414.3,474.7z M329.4,459.8c4.9-8.7,14-14.7,24.6-15.3c0.3,0,0.5,0,0.8,0c0.2,0,0.5,0,0.8,0
					c11.2,0,21,6.2,26.2,15.3H329.4z M84.5,416c-11.3,0-21.8,3.2-30.7,8.7v-7.6H25.9V470c-0.1,1.6-0.2,3.2-0.2,4.8
					c0,0.9,0,56.7,0.1,57.6H54v-60.8h0.5c1.6-15.2,14.4-27,30-27s28.4,11.8,30,27h0.3v60.8h28.5c0-0.9,0.1-56.7,0.1-57.6
					C143.3,442.4,117,416,84.5,416z M151.2,532.6H179V415.9h-27.9V532.6z M243.9,444.5c10.5,0,19.7,5.3,25.1,13.4l27.3-10
					c-9.7-19-29.5-32.1-52.4-32.1c-32.5,0-58.8,26.3-58.8,58.8s26.3,58.8,58.8,58.8c22.8,0,42.5-13,52.3-31.9l-27.3-10
					c-5.4,8-14.6,13.3-25,13.3c-16.7,0-30.2-13.5-30.2-30.2C213.8,458,227.3,444.5,243.9,444.5z"/>
			</g>
		</g>
		<g>
			<path class="st2" d="M33.2,562.8l7.1,9.8h-4.2l-6.6-9.4h-0.6v9.4h-3.5v-23h4.1c3,0,5.2,0.6,6.6,1.7c1.5,1.3,2.2,2.9,2.2,5
				c0,1.6-0.5,3-1.4,4.2C35.9,561.7,34.7,562.5,33.2,562.8z M28.9,560.2H30c3.3,0,4.9-1.3,4.9-3.8c0-2.3-1.6-3.5-4.8-3.5h-1.2V560.2
				z"/>
			<path class="st2" d="M77.7,552.9h-9.2v5.5h8.9v3.3h-8.9v7.7h9.2v3.3H65.1v-23h12.7V552.9z"/>
			<path class="st2" d="M120.6,550.9v4.1c-2-1.7-4.1-2.5-6.2-2.5c-2.4,0-4.3,0.8-6,2.5c-1.6,1.7-2.4,3.7-2.4,6.2
				c0,2.4,0.8,4.4,2.4,6.1c1.6,1.7,3.6,2.5,6,2.5c1.2,0,2.3-0.2,3.1-0.6c0.5-0.2,1-0.5,1.5-0.8s1-0.7,1.6-1.2v4.2
				c-2,1.1-4.1,1.7-6.2,1.7c-3.3,0-6.1-1.1-8.4-3.4c-2.3-2.3-3.5-5.1-3.5-8.4c0-2.9,1-5.5,2.9-7.8c2.4-2.8,5.5-4.2,9.2-4.2
				C116.7,549.2,118.6,549.8,120.6,550.9z"/>
			<path class="st2" d="M145,561c0-3.2,1.2-6,3.6-8.3c2.4-2.3,5.2-3.5,8.5-3.5c3.3,0,6.1,1.2,8.4,3.5c2.3,2.3,3.5,5.2,3.5,8.4
				c0,3.3-1.2,6.1-3.5,8.4c-2.4,2.3-5.2,3.5-8.6,3.5c-3,0-5.6-1-8-3.1C146.3,567.7,145,564.7,145,561z M148.5,561.1
				c0,2.5,0.9,4.6,2.6,6.3c1.7,1.6,3.7,2.5,5.9,2.5c2.4,0,4.4-0.8,6.1-2.5c1.7-1.7,2.5-3.7,2.5-6.2c0-2.4-0.8-4.5-2.5-6.2
				c-1.6-1.7-3.6-2.5-6-2.5c-2.4,0-4.4,0.8-6.1,2.5C149.3,556.6,148.5,558.7,148.5,561.1z"/>
			<path class="st2" d="M202.4,562.8l7.1,9.8h-4.2l-6.6-9.4h-0.6v9.4h-3.5v-23h4.1c3,0,5.2,0.6,6.6,1.7c1.5,1.3,2.2,2.9,2.2,5
				c0,1.6-0.5,3-1.4,4.2C205.2,561.7,203.9,562.5,202.4,562.8z M198.1,560.2h1.1c3.3,0,4.9-1.3,4.9-3.8c0-2.3-1.6-3.5-4.8-3.5h-1.2
				V560.2z"/>
			<path class="st2" d="M234.3,572.6v-23h4.8c2.3,0,4.1,0.2,5.5,0.7c1.4,0.4,2.7,1.2,3.9,2.3c2.4,2.2,3.6,5,3.6,8.5
				c0,3.5-1.2,6.4-3.7,8.6c-1.2,1.1-2.5,1.8-3.9,2.3c-1.3,0.4-3.1,0.6-5.4,0.6H234.3z M237.8,569.4h1.6c1.6,0,2.9-0.2,3.9-0.5
				c1-0.3,2-0.9,2.8-1.7c1.7-1.6,2.6-3.6,2.6-6.1c0-2.5-0.8-4.6-2.5-6.1c-1.5-1.4-3.8-2.1-6.7-2.1h-1.6V569.4z"/>
			<path class="st2" d="M281.2,549.6v23h-3.5v-23H281.2z"/>
			<path class="st2" d="M308,572.6v-24.5l16.7,17.5v-16h3.5V574l-16.7-17.5v16.1H308z"/>
			<path class="st2" d="M367.1,560.7h9.5v0.8c0,1.7-0.2,3.3-0.6,4.6c-0.4,1.2-1.1,2.4-2,3.5c-2.1,2.4-4.8,3.6-8.1,3.6
				c-3.2,0-6-1.2-8.3-3.5c-2.3-2.3-3.4-5.1-3.4-8.4c0-3.3,1.2-6.2,3.5-8.5c2.3-2.3,5.2-3.5,8.5-3.5c1.8,0,3.5,0.4,5,1.1
				c1.5,0.7,2.9,1.9,4.4,3.6l-2.5,2.4c-1.9-2.5-4.2-3.8-6.9-3.8c-2.4,0-4.5,0.8-6.1,2.5c-1.6,1.6-2.5,3.7-2.5,6.2
				c0,2.6,0.9,4.7,2.8,6.3c1.7,1.5,3.6,2.3,5.6,2.3c1.7,0,3.2-0.6,4.6-1.7c1.4-1.2,2.1-2.5,2.3-4.2h-5.7V560.7z"/>
			<path class="st2" d="M415.2,553.1l-2.8,1.7c-0.5-0.9-1-1.5-1.5-1.8c-0.5-0.3-1.1-0.5-1.9-0.5c-1,0-1.8,0.3-2.4,0.8
				c-0.6,0.5-1,1.2-1,2c0,1.1,0.8,2,2.5,2.7l2.3,0.9c1.9,0.8,3.2,1.7,4.1,2.8c0.9,1.1,1.3,2.4,1.3,4c0,2.1-0.7,3.9-2.1,5.2
				c-1.4,1.4-3.2,2.1-5.3,2.1c-2,0-3.6-0.6-4.9-1.8c-1.3-1.2-2.1-2.8-2.4-5l3.5-0.8c0.2,1.3,0.4,2.3,0.8,2.8c0.7,1,1.8,1.5,3.1,1.5
				c1.1,0,2-0.4,2.7-1.1c0.7-0.7,1.1-1.6,1.1-2.8c0-0.4-0.1-0.9-0.2-1.2c-0.1-0.4-0.3-0.7-0.6-1c-0.3-0.3-0.6-0.6-1-0.9
				c-0.4-0.3-0.9-0.5-1.5-0.8l-2.2-0.9c-3.1-1.3-4.7-3.3-4.7-5.8c0-1.7,0.7-3.2,2-4.3c1.3-1.2,3-1.8,4.9-1.8
				C411.7,549.2,413.7,550.5,415.2,553.1z"/>
		</g>
	</g>
</g>
</svg>
